<svg xmlns="http://www.w3.org/2000/svg" height="800" width="1200" viewBox="-74.25 -23.73725 643.5 142.4235"><defs><clipPath clipPathUnits="userSpaceOnUse" id="j"><path d="M382.677 778.155h184.252v35.343H382.677z"/></clipPath><clipPath clipPathUnits="userSpaceOnUse" id="k"><path d="M532.617 812.373h32.062v-33.555h-32.062z"/></clipPath><clipPath clipPathUnits="userSpaceOnUse" id="l"><path d="M538.3433 819.9196l35.5308-16.5683-14.9214-31.999-35.5308 16.5682z"/></clipPath><clipPath clipPathUnits="userSpaceOnUse" id="n"><path d="M527.777 784.8113l16.3924 35.1535 29.1335-13.5852-16.3924-35.1535z"/></clipPath><clipPath clipPathUnits="userSpaceOnUse" id="h"><path d="M532.2125 812.8048h32.9517V778.503h-32.9517z"/></clipPath><clipPath clipPathUnits="userSpaceOnUse" id="c"><path d="M382.677 778.155h184.252v35.343H382.677z"/></clipPath><clipPath clipPathUnits="userSpaceOnUse" id="d"><path d="M531.587 813.499h35.342v-35.344h-35.342z"/></clipPath><clipPath clipPathUnits="userSpaceOnUse" id="e"><path d="M531.587 778.155h35.342v35.343h-35.342z"/></clipPath><clipPath clipPathUnits="userSpaceOnUse" id="f"><path d="M516.696 790.0471l26.8123 38.2897 38.29-26.8126-26.8123-38.2896z"/></clipPath><clipPath clipPathUnits="userSpaceOnUse" id="a"><path d="M531.5866 813.4983h35.3425v-35.3424h-35.3425z"/></clipPath><linearGradient x1="0" y1="0" x2="1" y2="0" gradientUnits="userSpaceOnUse" gradientTransform="scale(35.2565 -35.2565) rotate(25 59.059 22.7446)" spreadMethod="pad" id="m"><stop offset="0" stop-color="#7d7d7d"/><stop offset=".6813" stop-color="#f4f4f4"/><stop offset="1" stop-color="#9fa0a0"/></linearGradient><linearGradient x1="0" y1="0" x2="1" y2="0" gradientUnits="userSpaceOnUse" gradientTransform="scale(35.34912 -35.34912) rotate(-65 -9.5614 -23.1159)" spreadMethod="pad" id="o"><stop offset="0" stop-color="#7d7d7d"/><stop offset=".7912" stop-color="#f4f4f4"/><stop offset="1" stop-color="#9fa0a0"/></linearGradient><linearGradient x1="0" y1="0" x2="1" y2="0" gradientUnits="userSpaceOnUse" gradientTransform="scale(33.55896 -33.55896) rotate(-54.998 -14.3436 -27.0969)" spreadMethod="pad" id="g"><stop offset="0" stop-color="#e15542"/><stop offset=".2527" stop-color="#da1025"/><stop offset="1" stop-color="#f7cfc0"/></linearGradient><radialGradient fx="0" fy="0" cx="0" cy="0" r="1" gradientUnits="userSpaceOnUse" gradientTransform="matrix(25.24132 0 0 -25.24132 557.205 797.1123)" spreadMethod="pad" id="i"><stop offset="0" stop-color="#fff"/><stop offset=".3187" stop-color="#f7f8f8"/><stop offset=".7967" stop-color="#e0e1e1"/><stop offset="1" stop-color="#d3d3d4"/></radialGradient><radialGradient fx="0" fy="0" cx="0" cy="0" r="1" gradientUnits="userSpaceOnUse" gradientTransform="matrix(17.6713 0 0 -17.6713 549.2581 795.827)" spreadMethod="pad" id="b"><stop offset="0" stop-color="#fff"/><stop offset=".8407" stop-color="#fff"/><stop offset="1" stop-color="#c9caca"/></radialGradient></defs><g clip-path="url(#a)" transform="matrix(2.68654 0 0 -2.68654 -1028.0763 2185.4933)"><path d="M531.587 795.828c0-9.761 7.91-17.672 17.67-17.672 9.76 0 17.672 7.911 17.672 17.672 0 9.759-7.912 17.67-17.672 17.67-9.76 0-17.67-7.911-17.67-17.67" fill="url(#b)"/></g><g clip-path="url(#c)" transform="matrix(2.68654 0 0 -2.68654 -1028.0763 2185.4933)"><path d="M536.9352 803.5891c4.26 6.746 13.227 8.73 20.031 4.435 6.804-4.296 8.868-13.247 4.609-19.992-4.259-6.746-13.227-8.731-20.031-4.434-6.804 4.294-8.867 13.247-4.609 19.991" fill="#fff"/><path d="M537.1202 803.5844c4.178 6.616 13.04 8.559 19.771 4.31 6.732-4.25 8.782-13.085 4.605-19.7-4.177-6.616-13.02-8.533-19.751-4.283-6.73 4.248-8.801 13.058-4.625 19.673" fill="#fff"/><path d="M537.3057 803.5798c4.096 6.486 12.853 8.388 19.511 4.185 6.658-4.204 8.696-12.923 4.6-19.409-4.095-6.486-12.812-8.336-19.47-4.131-6.658 4.202-8.736 12.87-4.641 19.355" fill="#fefefe"/><path d="M537.4912 803.5748c4.013 6.357 12.666 8.217 19.251 4.06 6.585-4.158 8.609-12.761 4.596-19.117-4.013-6.356-12.605-8.137-19.19-3.979-6.585 4.156-8.67 12.681-4.657 19.036" fill="#fefefe"/><path d="M537.6762 803.5701c3.932 6.227 12.479 8.046 18.991 3.935 6.512-4.112 8.523-12.599 4.592-18.825-3.931-6.226-12.397-7.94-18.91-3.828-6.511 4.11-8.604 12.492-4.673 18.718" fill="#fdfdfd"/><path d="M537.8617 803.5656c3.85 6.097 12.292 7.875 18.731 3.81 6.44-4.066 8.437-12.436 4.587-18.533-3.849-6.097-12.189-7.743-18.629-3.677-6.438 4.064-8.538 12.304-4.689 18.4" fill="#fdfdfd"/><path d="M538.0468 803.5608c3.768 5.967 12.105 7.703 18.472 3.685 6.365-4.02 8.35-12.274 4.582-18.241-3.767-5.967-11.982-7.545-18.348-3.525-6.366 4.017-8.473 12.115-4.706 18.081" fill="#fcfcfc"/><path d="M538.2322 803.5563c3.686 5.837 11.919 7.532 18.212 3.56 6.292-3.974 8.264-12.113 4.578-17.949-3.685-5.838-11.775-7.349-18.068-3.374-6.293 3.971-8.407 11.927-4.722 17.763" fill="#fbfbfb"/><path d="M538.4177 803.5515c3.603 5.707 11.731 7.361 17.951 3.434 6.22-3.927 8.178-11.949 4.575-17.656-3.604-5.709-11.568-7.151-17.788-3.223-6.22 3.925-8.341 11.738-4.738 17.445" fill="#fbfbfb"/><path d="M538.6027 803.5465c3.522 5.578 11.545 7.19 17.692 3.309 6.147-3.881 8.091-11.787 4.57-17.364-3.522-5.579-11.361-6.953-17.508-3.071-6.146 3.879-8.276 11.549-4.754 17.126" fill="#fafafa"/><path d="M538.7882 803.5421c3.44 5.448 11.358 7.019 17.432 3.184 6.073-3.835 8.005-11.625 4.565-17.073-3.44-5.449-11.153-6.755-17.227-2.919-6.074 3.833-8.21 11.361-4.77 16.808" fill="#f9fafa"/><path d="M538.9732 803.5372c3.358 5.318 11.171 6.848 17.172 3.059 6.001-3.789 7.92-11.462 4.561-16.781-3.358-5.319-10.946-6.558-16.947-2.768-6.001 3.787-8.144 11.173-4.786 16.49" fill="#f9f9f9"/><path d="M539.1587 803.5325c3.277 5.188 10.984 6.677 16.912 2.934 5.927-3.743 7.833-11.3 4.556-16.489-3.276-5.189-10.737-6.361-16.666-2.617-5.928 3.742-8.079 10.984-4.802 16.172" fill="#f8f8f8"/><path d="M539.3437 803.528c3.195 5.059 10.797 6.505 16.652 2.809 5.855-3.697 7.747-11.138 4.552-16.197-3.194-5.06-10.53-6.163-16.385-2.465-5.855 3.695-8.013 10.795-4.819 15.853" fill="#f7f8f8"/><path d="M539.5292 803.523c3.113 4.929 10.61 6.335 16.392 2.684 5.781-3.651 7.661-10.976 4.548-15.905-3.112-4.93-10.323-5.966-16.105-2.314-5.782 3.649-7.948 10.607-4.835 15.535" fill="#f7f7f7"/><path d="M539.7141 803.5182c3.031 4.799 10.423 6.163 16.133 2.559 5.708-3.605 7.574-10.814 4.543-15.614-3.03-4.8-10.115-5.767-15.825-2.162-5.709 3.603-7.882 10.418-4.851 15.217" fill="#f6f6f6"/><path d="M539.8997 803.5137c2.949 4.669 10.237 5.992 15.872 2.434 5.636-3.559 7.489-10.652 4.539-15.321-2.948-4.671-9.908-5.571-15.544-2.011-5.636 3.556-7.816 10.229-4.867 14.898" fill="#f5f6f6"/><path d="M540.0847 803.509c2.867 4.539 10.05 5.821 15.613 2.308 5.562-3.512 7.402-10.489 4.534-15.029-2.866-4.54-9.7-5.373-15.264-1.859-5.563 3.511-7.75 10.041-4.883 14.58" fill="#f5f5f5"/><path d="M540.2701 803.5042c2.785 4.41 9.863 5.65 15.352 2.183 5.49-3.466 7.316-10.327 4.531-14.737-2.784-4.411-9.493-5.175-14.984-1.708-5.49 3.465-7.684 9.853-4.899 14.262" fill="#f4f4f5"/><path d="M540.4552 803.4997c2.703 4.28 9.676 5.479 15.093 2.058 5.416-3.42 7.229-10.165 4.526-14.445-2.702-4.282-9.286-4.979-14.703-1.557-5.417 3.419-7.619 9.664-4.916 13.944" fill="#f4f4f4"/><path d="M540.6406 803.4947c2.621 4.15 9.489 5.308 14.833 1.933 5.344-3.374 7.143-10.002 4.521-14.153-2.62-4.152-9.078-4.781-14.422-1.405-5.344 3.372-7.553 9.475-4.932 13.625" fill="#f3f3f3"/><path d="M540.8257 803.4902c2.539 4.02 9.302 5.137 14.573 1.808 5.271-3.328 7.057-9.84 4.517-13.861-2.538-4.023-8.871-4.584-14.142-1.254-5.271 3.327-7.487 9.287-4.948 13.307" fill="#f2f2f3"/><path d="M541.0111 803.4854c2.458 3.891 9.115 4.966 14.313 1.683 5.198-3.282 6.971-9.678 4.513-13.569-2.456-3.893-8.664-4.386-13.862-1.103-5.198 3.281-7.421 9.098-4.964 12.989" fill="#f1f2f2"/><path d="M541.1967 803.4807c2.375 3.761 8.927 4.794 14.053 1.558 5.124-3.236 6.884-9.516 4.508-13.277-2.374-3.763-8.455-4.189-13.581-.952-5.125 3.235-7.356 8.91-4.98 12.671" fill="#f1f1f1"/><path d="M541.3817 803.4759c2.293 3.632 8.741 4.623 13.793 1.433 5.052-3.19 6.799-9.354 4.504-12.986-2.292-3.633-8.248-3.99-13.301-.799-5.052 3.188-7.289 8.721-4.996 12.352" fill="#f0f0f0"/><path d="M541.5671 803.4714c2.212 3.501 8.554 4.452 13.533 1.308 4.979-3.144 6.712-9.192 4.5-12.694-2.211-3.504-8.041-3.793-13.021-.648-4.979 3.143-7.224 8.532-5.012 12.034" fill="#eff0f0"/><path d="M541.7521 803.4667c2.13 3.372 8.367 4.281 13.274 1.183 4.905-3.098 6.626-9.03 4.495-12.402-2.129-3.374-7.834-3.596-12.741-.497-4.905 3.097-7.158 8.344-5.028 11.716" fill="#efefef"/><path d="M541.9376 803.4619c2.047 3.242 8.18 4.11 13.014 1.058 4.832-3.051 6.539-8.868 4.49-12.11-2.046-3.244-7.626-3.398-12.459-.346-4.833 3.05-7.093 8.155-5.045 11.398" fill="#eee"/><path d="M542.1227 803.4571c1.966 3.113 7.993 3.939 12.754.933 4.759-3.005 6.453-8.705 4.486-11.818-1.964-3.115-7.418-3.201-12.179-.195-4.76 3.005-7.027 7.967-5.061 11.08" fill="#edeeee"/><path d="M542.3081 803.4524c1.884 2.982 7.806 3.768 12.493.807 4.687-2.959 6.368-8.542 4.482-11.525-1.882-2.985-7.21-3.004-11.898-.043-4.687 2.958-6.961 7.778-5.077 10.761" fill="#ededed"/><path d="M542.4932 803.4476c1.802 2.853 7.62 3.597 12.234.682 4.613-2.913 6.281-8.38 4.477-11.234-1.8-2.855-7.003-2.805-11.618.109-4.614 2.913-6.895 7.59-5.093 10.443" fill="#ececed"/><path d="M542.6786 803.4431c1.72 2.723 7.433 3.425 11.974.557 4.54-2.866 6.195-8.218 4.473-10.942-1.719-2.725-6.796-2.608-11.338.26-4.541 2.866-6.83 7.402-5.109 10.125" fill="#ebecec"/><path d="M542.8636 803.4384c1.638 2.593 7.246 3.254 11.715.432 4.467-2.82 6.108-8.056 4.468-10.65-1.636-2.596-6.589-2.411-11.058.411-4.468 2.821-6.763 7.213-5.125 9.807" fill="#ebebeb"/><path d="M543.0491 803.4336c1.556 2.464 7.059 3.083 11.454.307 4.395-2.774 6.023-7.894 4.465-10.358-1.555-2.466-6.382-2.214-10.777.563-4.396 2.774-6.699 7.024-5.142 9.488" fill="#eaeaeb"/><path d="M543.2341 803.4288c1.474 2.334 6.872 2.912 11.195.182 4.32-2.729 5.936-7.732 4.46-10.066-1.473-2.337-6.174-2.016-10.497.714-4.322 2.728-6.632 6.836-5.158 9.17" fill="#e9eaea"/><path d="M543.4196 803.4241c1.392 2.204 6.685 2.741 10.935.057 4.248-2.682 5.85-7.57 4.456-9.774-1.392-2.207-5.967-1.819-10.217.865-4.25 2.682-6.567 6.648-5.174 8.852" fill="#e9e9e9"/><path d="M543.6046 803.4193c1.311 2.074 6.498 2.57 10.675-.068 4.175-2.636 5.764-7.408 4.451-9.482-1.309-2.078-5.759-1.621-9.936 1.017-4.176 2.636-6.501 6.458-5.19 8.533" fill="#e8e8e9"/><path d="M543.7901 803.4148c1.228 1.945 6.311 2.399 10.415-.193 4.102-2.59 5.677-7.246 4.447-9.191-1.227-1.947-5.552-1.423-9.656 1.169-4.103 2.59-6.435 6.27-5.206 8.215" fill="#e7e8e8"/><path d="M543.9751 803.41c1.147 1.815 6.124 2.228 10.155-.318 4.029-2.544 5.591-7.083 4.443-8.899-1.145-1.817-5.345-1.226-9.375 1.32-4.031 2.544-6.37 6.081-5.223 7.897" fill="#e7e7e7"/><path d="M544.1606 803.4053c1.065 1.685 5.937 2.057 9.895-.444 3.956-2.498 5.505-6.92 4.438-8.606-1.063-1.688-5.137-1.028-9.094 1.472-3.958 2.497-6.305 5.892-5.239 7.578" fill="#e6e6e6"/><g clip-path="url(#d)"><g clip-path="url(#e)"><path d="M566.9292 795.8275c0 9.76-7.912 17.671-17.672 17.671-9.76 0-17.67-7.911-17.67-17.671s7.91-17.672 17.67-17.672c9.76 0 17.672 7.912 17.672 17.672" fill="#da1125"/></g><g clip-path="url(#f)"><path d="M532.471 795.794c-.006-9.267 7.505-16.782 16.77-16.786 9.268-.003 16.782 7.506 16.786 16.773.002 9.266-7.505 16.779-16.772 16.783-9.268.003-16.781-7.506-16.784-16.77" fill="url(#g)"/></g></g></g><g clip-path="url(#h)" transform="matrix(2.68654 0 0 -2.68654 -1028.0763 2185.4933)"><path d="M555.493 808.496c0-1.399-.125-2.822-.355-4.248-3.831 2.64-8.69 4.535-14.087 4.535-2.58 0-4.316-.689-4.978-1.198-.68-.706-1.479-1.783-2.167-3.006-.731-1.299-1.314-2.613-1.694-4.115.317.359 1.688 1.385 4.469 1.385 5.479 0 11.277-2.795 15.861-6.244-3.476-8.042-9.231-14.486-12.857-14.486-.087 0-.213.006-.251.022 1.734-1.19 4.094-2.23 6.332-2.638 4.124.442 9.377 4.833 12.646 11.562 1.941-2.37 3.154-4.661 3.154-6.26 0-.39-.078-.665-.136-.797 1.445 1.372 2.659 2.985 3.576 4.777.065.247.158.823.158 1.392 0 2.579-1.48 6.126-4.063 9.444.251 1.574.387 3.21.387 4.895 0 4.476-.993 5.756-1.33 6.226-.938.735-1.704 1.227-2.613 1.709-1.028.543-2.126 1.01-3.363 1.353.295-.202 1.311-.907 1.311-4.308" fill="url(#i)"/></g><g clip-path="url(#j)" transform="matrix(2.68654 0 0 -2.68654 -1028.0763 2185.4933)"><g clip-path="url(#k)" opacity=".8"><g clip-path="url(#l)"><path d="M535.173 806.506c-.13-.168-.384-.524-.553-.768.465.438 2.145 1.261 5.102 1.261 13.748 0 24.59-12.65 24.59-19.744 0-.184-.04-.635-.194-.993.127.201.291.45.366.58.184.327.195.849.195 1.129 0 7.238-10.72 19.668-24.494 19.668-3.184 0-4.454-.733-5.012-1.133m-1.282-1.966c0 .01-.336-.59-.421-.787.406.3 1.804 1.271 4.771 1.271 14.791 0 25.036-13.493 25.036-19.222 0-.276-.042-.713-.189-.964.188.236.34.433.44.573.216.295.168.915.168 1.098 0 5.609-10.054 19.215-24.857 19.215-3.065 0-4.399-.742-4.948-1.184m-1.021-2.079c-.075-.233-.167-.458-.254-.674.339.254 1.796 1.361 4.746 1.361 13.204 0 24.842-12.924 24.842-18.735 0-.223-.049-.569-.157-.78.127.132.252.267.373.403.124.138.174.798.174.896 0 5.877-11.222 18.895-24.913 18.895-3.098 0-4.458-1.083-4.811-1.366" fill="url(#m)"/></g><g clip-path="url(#n)"><path d="M556.606 807.981c0-14.327-10.711-26.971-15.977-27.579.202-.115.367-.202.572-.307 6.943 1.487 15.992 14.586 15.992 27.642 0 2.4-.712 4.004-1.06 4.375-.198.084-.451.187-.65.26.51-.491 1.123-2.175 1.123-4.391m1.605-1.292c0-13.425-9.05-25.659-16.149-27.009.226-.1.414-.18.607-.259 8.091 1.573 16.155 14.306 16.155 26.999 0 2.504-.837 4.632-1.206 4.982-.208.113-.466.244-.626.32.229-.232 1.219-2.042 1.219-5.033m1.608-.681c0-14.207-8.183-25.529-16.148-26.964.287-.085.473-.152.74-.225 8.494 1.21 16.04 13.666 16.04 26.527 0 2.962-.951 4.777-1.279 5.116-.199.134-.392.249-.62.401.256-.222 1.267-2.049 1.267-4.855" fill="url(#o)"/></g></g><path d="M423.0719 804.4005c0 .588-.281.868-.841.868h-2.608c-.588 0-.84-.308-.84-.868v-11.55c0-1.178-.757-1.711-1.878-1.711-1.29 0-1.542.281-2.075.281-.336 0-.616-.14-.728-.673l-.309-1.654c-.112-.532.196-.814.617-.952.56-.197 2.074-.365 3.167-.365 3.505 0 5.495 1.682 5.495 5.467zm54.102-1.347c1.262 1.627 3.279 2.467 6.42 2.467.869 0 1.878-.056 2.522-.224.394-.112.449-.392.394-.813l-.394-1.906c-.112-.364-.196-.477-.476-.477-.056 0-.139.029-.224.029-.757 0-.533.112-1.374.112-1.57 0-2.411-.393-2.97-1.01-.73-.812-.758-1.681-.758-3.784v-8.55c0-.56-.252-.87-.84-.87h-2.608c-.56 0-.841.281-.841.87v8.41c0 3.112.168 4.457 1.149 5.746m-8.353-4.737h-7.906c.084.56.253 1.094.505 1.627.673 1.4 2.075 2.325 3.784 2.325 2.215 0 3.617-1.598 3.617-3.868zm4.093-.085c-.226 2.271-1.067 4.15-2.44 5.383-1.345 1.177-3.167 1.906-5.354 1.906-1.794 0-3.84-.532-5.522-1.906-1.822-1.485-3.195-4.008-3.195-7.175 0-2.635.897-4.907 2.466-6.336 1.542-1.43 3.728-2.327 6.364-2.327 2.466 0 5.102.785 6.363 1.571.337.222.504.419.392.756l-.729 2.045c-.111.337-.476.422-.785.282-.672-.309-.672-.393-1.373-.645-1.149-.42-1.991-.617-3.14-.617-1.906 0-3.139.589-3.98 1.57-.617.701-.953 1.514-1.037 2.495h11.408c.421 0 .618.28.618.784v.814c0 .392-.028 1.036-.056 1.4m26.406-1.569c0 2.972-1.149 5.606-4.205 5.606s-4.233-2.634-4.233-5.606 1.177-5.634 4.233-5.634c3.056 0 4.205 2.662 4.205 5.634m4.514 0c0-5.102-3.617-8.886-8.775-8.886-5.074 0-8.662 3.672-8.662 8.774 0 5.046 3.42 8.97 8.662 8.97 5.158 0 8.775-3.727 8.775-8.858m1.289 7.906c-.14.504.028.7.336.7h3.616c.42 0 .589-.168.785-.645.785-1.821 1.991-3.896 3.027-5.101.196.195 1.822 1.989 3.478 5.101.307.588.419.645.812.645h2.803c.251 0 .561-.141.392-.617-1.121-3.308-3.673-6.196-5.074-7.709 1.515-1.457 4.261-4.905 5.55-8.241.113-.337.057-.674-.588-.674h-3.364c-.365 0-.589 0-.841.618-.868 2.102-2.215 4.317-3.728 5.746l.224.03c-1.626-1.683-2.972-3.954-3.812-5.776-.225-.504-.365-.618-.841-.618h-3.084c-.196 0-.42.225-.28.646.841 2.382 2.888 5.718 5.355 7.933-1.964 2.383-4.038 5.523-4.766 7.962m-65.316 0c-.14.504 0 .7.365.7h3.588c.42 0 .589-.141.812-.645.785-1.821 1.99-3.896 3-5.101h.028c.196.195 1.794 1.962 3.448 5.101.309.588.421.645.813.645h2.803c.252 0 .561-.141.393-.617-1.093-3.308-3.644-6.196-5.046-7.709 1.486-1.457 4.233-4.905 5.522-8.241.113-.337.056-.674-.588-.674h-3.336c-.365 0-.617.029-.869.59-.841 2.13-2.186 4.345-3.7 5.774l.195.03c-1.654-1.712-2.943-3.927-3.783-5.776-.225-.504-.421-.618-.87-.618h-3.055c-.225 0-.421.225-.281.646.869 2.466 2.776 5.634 5.326 7.933-1.962 2.383-4.036 5.523-4.765 7.962m-52.841-10.177h6.476c.56 0 .813.253.813.786v1.57c0 .56-.281.784-.813.784h-6.476v2.943c0 1.094.673 1.514 1.626 1.514h5.382c.617 0 .841.141.925.701l.253 1.794c.083.561-.141.785-.729.785h-6.7c-3.167 0-5.046-1.626-5.046-5.046v-11.325c0-.589.281-.87.841-.87h2.608c.588 0 .84.31.84.87zm17.885-3.391c-2.635 0-3.364 1.485-3.364 3.476v9.924c0 .588-.28.868-.841.868h-2.607c-.589 0-.84-.308-.84-.868v-9.756c0-5.69 3.615-6.868 7.399-6.868 3.897 0 7.962 1.262 7.962 7.12v9.504c0 .588-.281.868-.841.868h-2.607c-.589 0-.841-.308-.841-.868v-10.121c0-1.905-.869-3.279-3.42-3.279m22.342 13.4c0 .56.252.868.841.868h2.607c.56 0 .84-.28.84-.868v-15.503c0-.56-.251-.87-.84-.87h-2.607c-.561 0-.841.281-.841.87z" fill="#da1125"/></g></svg>